<mxfile host="app.diagrams.net" modified="2023-12-09T19:59:53.386Z" agent="Mozilla/5.0 (Windows NT 10.0; Win64; x64) AppleWebKit/537.36 (KHTML, like Gecko) Chrome/119.0.0.0 Safari/537.36 Edg/119.0.0.0" etag="FdoYW2Zu1a1fCbbXHt47" version="22.1.7" type="github">
  <diagram id="C5RBs43oDa-KdzZeNtuy" name="Page-1">
    <mxGraphModel dx="3205" dy="1423" grid="1" gridSize="10" guides="1" tooltips="1" connect="1" arrows="1" fold="1" page="1" pageScale="1" pageWidth="827" pageHeight="1169" math="0" shadow="0">
      <root>
        <mxCell id="WIyWlLk6GJQsqaUBKTNV-0" />
        <mxCell id="WIyWlLk6GJQsqaUBKTNV-1" parent="WIyWlLk6GJQsqaUBKTNV-0" />
        <mxCell id="piUvpMwepGDPE1TJ73cZ-43" style="edgeStyle=orthogonalEdgeStyle;rounded=0;orthogonalLoop=1;jettySize=auto;html=1;exitX=1;exitY=0.5;exitDx=0;exitDy=0;entryX=0;entryY=0.5;entryDx=0;entryDy=0;" edge="1" parent="WIyWlLk6GJQsqaUBKTNV-1" source="piUvpMwepGDPE1TJ73cZ-44" target="piUvpMwepGDPE1TJ73cZ-46">
          <mxGeometry relative="1" as="geometry" />
        </mxCell>
        <mxCell id="piUvpMwepGDPE1TJ73cZ-44" value="" style="ellipse;whiteSpace=wrap;html=1;aspect=fixed;fillColor=#000000;" vertex="1" parent="WIyWlLk6GJQsqaUBKTNV-1">
          <mxGeometry x="59" y="85" width="20" height="20" as="geometry" />
        </mxCell>
        <mxCell id="piUvpMwepGDPE1TJ73cZ-45" style="edgeStyle=orthogonalEdgeStyle;rounded=0;orthogonalLoop=1;jettySize=auto;html=1;entryX=0;entryY=0.5;entryDx=0;entryDy=0;" edge="1" parent="WIyWlLk6GJQsqaUBKTNV-1" source="piUvpMwepGDPE1TJ73cZ-46" target="piUvpMwepGDPE1TJ73cZ-48">
          <mxGeometry relative="1" as="geometry" />
        </mxCell>
        <mxCell id="piUvpMwepGDPE1TJ73cZ-46" value="Жүйеге кіру" style="rounded=1;whiteSpace=wrap;html=1;" vertex="1" parent="WIyWlLk6GJQsqaUBKTNV-1">
          <mxGeometry x="149" y="75" width="80" height="40" as="geometry" />
        </mxCell>
        <mxCell id="piUvpMwepGDPE1TJ73cZ-47" style="edgeStyle=orthogonalEdgeStyle;rounded=0;orthogonalLoop=1;jettySize=auto;html=1;" edge="1" parent="WIyWlLk6GJQsqaUBKTNV-1" source="piUvpMwepGDPE1TJ73cZ-48" target="piUvpMwepGDPE1TJ73cZ-50">
          <mxGeometry relative="1" as="geometry" />
        </mxCell>
        <mxCell id="piUvpMwepGDPE1TJ73cZ-48" value="Услуги бөліміне кіру" style="rounded=1;whiteSpace=wrap;html=1;" vertex="1" parent="WIyWlLk6GJQsqaUBKTNV-1">
          <mxGeometry x="349" y="75" width="80" height="40" as="geometry" />
        </mxCell>
        <mxCell id="piUvpMwepGDPE1TJ73cZ-49" style="edgeStyle=orthogonalEdgeStyle;rounded=0;orthogonalLoop=1;jettySize=auto;html=1;entryX=0.5;entryY=0;entryDx=0;entryDy=0;" edge="1" parent="WIyWlLk6GJQsqaUBKTNV-1" source="piUvpMwepGDPE1TJ73cZ-50" target="piUvpMwepGDPE1TJ73cZ-52">
          <mxGeometry relative="1" as="geometry">
            <mxPoint x="629" y="235" as="targetPoint" />
          </mxGeometry>
        </mxCell>
        <mxCell id="piUvpMwepGDPE1TJ73cZ-50" value="Қажетті &amp;nbsp;қызметті таңдау(толық тексеріс, анализ және т.б)" style="rounded=1;whiteSpace=wrap;html=1;" vertex="1" parent="WIyWlLk6GJQsqaUBKTNV-1">
          <mxGeometry x="569" y="60" width="150" height="70" as="geometry" />
        </mxCell>
        <mxCell id="piUvpMwepGDPE1TJ73cZ-51" style="edgeStyle=orthogonalEdgeStyle;rounded=0;orthogonalLoop=1;jettySize=auto;html=1;entryX=1;entryY=0.5;entryDx=0;entryDy=0;" edge="1" parent="WIyWlLk6GJQsqaUBKTNV-1" source="piUvpMwepGDPE1TJ73cZ-52" target="piUvpMwepGDPE1TJ73cZ-54">
          <mxGeometry relative="1" as="geometry" />
        </mxCell>
        <mxCell id="piUvpMwepGDPE1TJ73cZ-52" value="Қызмет туралы толық ақпарат бағасы және т.б" style="rounded=1;whiteSpace=wrap;html=1;" vertex="1" parent="WIyWlLk6GJQsqaUBKTNV-1">
          <mxGeometry x="584" y="235" width="120" height="60" as="geometry" />
        </mxCell>
        <mxCell id="piUvpMwepGDPE1TJ73cZ-53" value="" style="edgeStyle=orthogonalEdgeStyle;rounded=0;orthogonalLoop=1;jettySize=auto;html=1;" edge="1" parent="WIyWlLk6GJQsqaUBKTNV-1" source="piUvpMwepGDPE1TJ73cZ-54" target="piUvpMwepGDPE1TJ73cZ-61">
          <mxGeometry relative="1" as="geometry" />
        </mxCell>
        <mxCell id="piUvpMwepGDPE1TJ73cZ-54" value="Жазылу батырмасы" style="rounded=1;whiteSpace=wrap;html=1;" vertex="1" parent="WIyWlLk6GJQsqaUBKTNV-1">
          <mxGeometry x="308" y="235" width="116" height="60" as="geometry" />
        </mxCell>
        <mxCell id="piUvpMwepGDPE1TJ73cZ-55" value="" style="edgeStyle=orthogonalEdgeStyle;rounded=0;orthogonalLoop=1;jettySize=auto;html=1;" edge="1" parent="WIyWlLk6GJQsqaUBKTNV-1" source="piUvpMwepGDPE1TJ73cZ-56" target="piUvpMwepGDPE1TJ73cZ-71">
          <mxGeometry relative="1" as="geometry" />
        </mxCell>
        <mxCell id="piUvpMwepGDPE1TJ73cZ-56" value="Жазылу формасы" style="rounded=1;whiteSpace=wrap;html=1;" vertex="1" parent="WIyWlLk6GJQsqaUBKTNV-1">
          <mxGeometry x="39" y="515" width="120" height="60" as="geometry" />
        </mxCell>
        <mxCell id="piUvpMwepGDPE1TJ73cZ-57" style="edgeStyle=orthogonalEdgeStyle;rounded=0;orthogonalLoop=1;jettySize=auto;html=1;entryX=0.5;entryY=0;entryDx=0;entryDy=0;" edge="1" parent="WIyWlLk6GJQsqaUBKTNV-1" source="piUvpMwepGDPE1TJ73cZ-58" target="piUvpMwepGDPE1TJ73cZ-56">
          <mxGeometry relative="1" as="geometry" />
        </mxCell>
        <mxCell id="piUvpMwepGDPE1TJ73cZ-58" value="Кіру" style="rounded=1;whiteSpace=wrap;html=1;" vertex="1" parent="WIyWlLk6GJQsqaUBKTNV-1">
          <mxGeometry x="39" y="395" width="120" height="60" as="geometry" />
        </mxCell>
        <mxCell id="piUvpMwepGDPE1TJ73cZ-59" style="edgeStyle=orthogonalEdgeStyle;rounded=0;orthogonalLoop=1;jettySize=auto;html=1;entryX=1;entryY=0.5;entryDx=0;entryDy=0;" edge="1" parent="WIyWlLk6GJQsqaUBKTNV-1" source="piUvpMwepGDPE1TJ73cZ-61" target="piUvpMwepGDPE1TJ73cZ-58">
          <mxGeometry relative="1" as="geometry" />
        </mxCell>
        <mxCell id="piUvpMwepGDPE1TJ73cZ-60" style="edgeStyle=orthogonalEdgeStyle;rounded=0;orthogonalLoop=1;jettySize=auto;html=1;" edge="1" parent="WIyWlLk6GJQsqaUBKTNV-1" source="piUvpMwepGDPE1TJ73cZ-61" target="piUvpMwepGDPE1TJ73cZ-63">
          <mxGeometry relative="1" as="geometry" />
        </mxCell>
        <mxCell id="piUvpMwepGDPE1TJ73cZ-61" value="Жүйеге тіркелген бе?" style="rhombus;whiteSpace=wrap;html=1;rounded=1;" vertex="1" parent="WIyWlLk6GJQsqaUBKTNV-1">
          <mxGeometry x="287" y="355" width="158" height="140" as="geometry" />
        </mxCell>
        <mxCell id="piUvpMwepGDPE1TJ73cZ-62" value="" style="edgeStyle=orthogonalEdgeStyle;rounded=0;orthogonalLoop=1;jettySize=auto;html=1;" edge="1" parent="WIyWlLk6GJQsqaUBKTNV-1" source="piUvpMwepGDPE1TJ73cZ-63" target="piUvpMwepGDPE1TJ73cZ-67">
          <mxGeometry relative="1" as="geometry" />
        </mxCell>
        <mxCell id="piUvpMwepGDPE1TJ73cZ-63" value="Тіркелу" style="rounded=1;whiteSpace=wrap;html=1;" vertex="1" parent="WIyWlLk6GJQsqaUBKTNV-1">
          <mxGeometry x="589" y="395" width="120" height="60" as="geometry" />
        </mxCell>
        <mxCell id="piUvpMwepGDPE1TJ73cZ-64" value="Жоқ" style="text;html=1;align=center;verticalAlign=middle;resizable=0;points=[];autosize=1;strokeColor=none;fillColor=none;" vertex="1" parent="WIyWlLk6GJQsqaUBKTNV-1">
          <mxGeometry x="469" y="365" width="50" height="30" as="geometry" />
        </mxCell>
        <mxCell id="piUvpMwepGDPE1TJ73cZ-65" value="Иә" style="text;html=1;align=center;verticalAlign=middle;resizable=0;points=[];autosize=1;strokeColor=none;fillColor=none;" vertex="1" parent="WIyWlLk6GJQsqaUBKTNV-1">
          <mxGeometry x="219" y="375" width="40" height="30" as="geometry" />
        </mxCell>
        <mxCell id="piUvpMwepGDPE1TJ73cZ-66" value="" style="edgeStyle=orthogonalEdgeStyle;rounded=0;orthogonalLoop=1;jettySize=auto;html=1;" edge="1" parent="WIyWlLk6GJQsqaUBKTNV-1" source="piUvpMwepGDPE1TJ73cZ-67" target="piUvpMwepGDPE1TJ73cZ-69">
          <mxGeometry relative="1" as="geometry" />
        </mxCell>
        <mxCell id="piUvpMwepGDPE1TJ73cZ-67" value="форманы толтыру" style="rounded=1;whiteSpace=wrap;html=1;" vertex="1" parent="WIyWlLk6GJQsqaUBKTNV-1">
          <mxGeometry x="589" y="505" width="120" height="60" as="geometry" />
        </mxCell>
        <mxCell id="piUvpMwepGDPE1TJ73cZ-68" style="edgeStyle=orthogonalEdgeStyle;rounded=0;orthogonalLoop=1;jettySize=auto;html=1;entryX=1;entryY=0.5;entryDx=0;entryDy=0;" edge="1" parent="WIyWlLk6GJQsqaUBKTNV-1" source="piUvpMwepGDPE1TJ73cZ-69" target="piUvpMwepGDPE1TJ73cZ-58">
          <mxGeometry relative="1" as="geometry">
            <Array as="points">
              <mxPoint x="259" y="635" />
              <mxPoint x="259" y="425" />
            </Array>
          </mxGeometry>
        </mxCell>
        <mxCell id="piUvpMwepGDPE1TJ73cZ-69" value="тіркелу батырмасын басу" style="rounded=1;whiteSpace=wrap;html=1;" vertex="1" parent="WIyWlLk6GJQsqaUBKTNV-1">
          <mxGeometry x="589" y="605" width="120" height="60" as="geometry" />
        </mxCell>
        <mxCell id="piUvpMwepGDPE1TJ73cZ-70" value="" style="edgeStyle=orthogonalEdgeStyle;rounded=0;orthogonalLoop=1;jettySize=auto;html=1;" edge="1" parent="WIyWlLk6GJQsqaUBKTNV-1" source="piUvpMwepGDPE1TJ73cZ-71" target="piUvpMwepGDPE1TJ73cZ-73">
          <mxGeometry relative="1" as="geometry" />
        </mxCell>
        <mxCell id="piUvpMwepGDPE1TJ73cZ-71" value="Дәрігерді таңдау" style="rounded=1;whiteSpace=wrap;html=1;" vertex="1" parent="WIyWlLk6GJQsqaUBKTNV-1">
          <mxGeometry x="39" y="625" width="120" height="70" as="geometry" />
        </mxCell>
        <mxCell id="piUvpMwepGDPE1TJ73cZ-72" value="" style="edgeStyle=orthogonalEdgeStyle;rounded=0;orthogonalLoop=1;jettySize=auto;html=1;" edge="1" parent="WIyWlLk6GJQsqaUBKTNV-1" source="piUvpMwepGDPE1TJ73cZ-73" target="piUvpMwepGDPE1TJ73cZ-75">
          <mxGeometry relative="1" as="geometry" />
        </mxCell>
        <mxCell id="piUvpMwepGDPE1TJ73cZ-73" value="Күн және уақытын таңдау" style="rounded=1;whiteSpace=wrap;html=1;" vertex="1" parent="WIyWlLk6GJQsqaUBKTNV-1">
          <mxGeometry x="39" y="745" width="120" height="70" as="geometry" />
        </mxCell>
        <mxCell id="piUvpMwepGDPE1TJ73cZ-74" style="edgeStyle=orthogonalEdgeStyle;rounded=0;orthogonalLoop=1;jettySize=auto;html=1;entryX=0;entryY=0.5;entryDx=0;entryDy=0;" edge="1" parent="WIyWlLk6GJQsqaUBKTNV-1" source="piUvpMwepGDPE1TJ73cZ-75" target="piUvpMwepGDPE1TJ73cZ-78">
          <mxGeometry relative="1" as="geometry" />
        </mxCell>
        <mxCell id="piUvpMwepGDPE1TJ73cZ-75" value="Жазылу" style="rounded=1;whiteSpace=wrap;html=1;" vertex="1" parent="WIyWlLk6GJQsqaUBKTNV-1">
          <mxGeometry x="39" y="865" width="120" height="70" as="geometry" />
        </mxCell>
        <mxCell id="piUvpMwepGDPE1TJ73cZ-76" value="" style="edgeStyle=orthogonalEdgeStyle;rounded=0;orthogonalLoop=1;jettySize=auto;html=1;" edge="1" parent="WIyWlLk6GJQsqaUBKTNV-1" source="piUvpMwepGDPE1TJ73cZ-78" target="piUvpMwepGDPE1TJ73cZ-80">
          <mxGeometry relative="1" as="geometry" />
        </mxCell>
        <mxCell id="piUvpMwepGDPE1TJ73cZ-77" value="" style="edgeStyle=orthogonalEdgeStyle;rounded=0;orthogonalLoop=1;jettySize=auto;html=1;" edge="1" parent="WIyWlLk6GJQsqaUBKTNV-1" source="piUvpMwepGDPE1TJ73cZ-78" target="piUvpMwepGDPE1TJ73cZ-83">
          <mxGeometry relative="1" as="geometry" />
        </mxCell>
        <mxCell id="piUvpMwepGDPE1TJ73cZ-78" value="Таңдаған уақытта дәрігер бос па?" style="rhombus;whiteSpace=wrap;html=1;rounded=1;" vertex="1" parent="WIyWlLk6GJQsqaUBKTNV-1">
          <mxGeometry x="319" y="655" width="200" height="145" as="geometry" />
        </mxCell>
        <mxCell id="piUvpMwepGDPE1TJ73cZ-79" value="" style="edgeStyle=orthogonalEdgeStyle;rounded=0;orthogonalLoop=1;jettySize=auto;html=1;" edge="1" parent="WIyWlLk6GJQsqaUBKTNV-1" source="piUvpMwepGDPE1TJ73cZ-80" target="piUvpMwepGDPE1TJ73cZ-85">
          <mxGeometry relative="1" as="geometry" />
        </mxCell>
        <mxCell id="piUvpMwepGDPE1TJ73cZ-80" value="Жазылды" style="whiteSpace=wrap;html=1;rounded=1;" vertex="1" parent="WIyWlLk6GJQsqaUBKTNV-1">
          <mxGeometry x="669" y="697.5" width="120" height="60" as="geometry" />
        </mxCell>
        <mxCell id="piUvpMwepGDPE1TJ73cZ-81" value="Иә" style="text;html=1;align=center;verticalAlign=middle;resizable=0;points=[];autosize=1;strokeColor=none;fillColor=none;" vertex="1" parent="WIyWlLk6GJQsqaUBKTNV-1">
          <mxGeometry x="539" y="675" width="40" height="30" as="geometry" />
        </mxCell>
        <mxCell id="piUvpMwepGDPE1TJ73cZ-82" style="edgeStyle=orthogonalEdgeStyle;rounded=0;orthogonalLoop=1;jettySize=auto;html=1;entryX=1;entryY=0.5;entryDx=0;entryDy=0;" edge="1" parent="WIyWlLk6GJQsqaUBKTNV-1" source="piUvpMwepGDPE1TJ73cZ-83" target="piUvpMwepGDPE1TJ73cZ-56">
          <mxGeometry relative="1" as="geometry">
            <mxPoint x="209" y="475" as="targetPoint" />
            <Array as="points">
              <mxPoint x="209" y="875" />
              <mxPoint x="209" y="545" />
            </Array>
          </mxGeometry>
        </mxCell>
        <mxCell id="piUvpMwepGDPE1TJ73cZ-83" value="Қате шығады&lt;br&gt;ол уақытта дәргер бос емес" style="whiteSpace=wrap;html=1;rounded=1;" vertex="1" parent="WIyWlLk6GJQsqaUBKTNV-1">
          <mxGeometry x="359" y="845" width="120" height="60" as="geometry" />
        </mxCell>
        <mxCell id="piUvpMwepGDPE1TJ73cZ-84" value="Жоқ" style="text;html=1;align=center;verticalAlign=middle;resizable=0;points=[];autosize=1;strokeColor=none;fillColor=none;" vertex="1" parent="WIyWlLk6GJQsqaUBKTNV-1">
          <mxGeometry x="429" y="805" width="50" height="30" as="geometry" />
        </mxCell>
        <mxCell id="piUvpMwepGDPE1TJ73cZ-85" value="" style="ellipse;whiteSpace=wrap;html=1;rounded=1;fillColor=#000000;" vertex="1" parent="WIyWlLk6GJQsqaUBKTNV-1">
          <mxGeometry x="717.75" y="855" width="22.5" height="22.5" as="geometry" />
        </mxCell>
      </root>
    </mxGraphModel>
  </diagram>
</mxfile>
